<svg width="41" height="34" viewBox="0 0 41 34" fill="none" xmlns="http://www.w3.org/2000/svg">
<path d="M29.5372 0.0293041C29.2173 0.0354145 28.8973 0.0965239 28.5713 0.175965C26.0962 0.646501 24.5326 2.99918 24.9975 5.50464C26.235 4.41079 27.9435 3.30473 30.2617 3.30473C32.115 3.30473 33.3405 3.76304 34.2702 4.23358C34.2702 4.0747 34.2822 3.95248 34.1253 3.79359C33.7208 1.60591 31.7769 -0.0256933 29.5372 0.0293041ZM11.0884 0.224852C8.95135 0.169854 7.00143 1.74035 6.59695 3.79359C6.44 3.95248 6.45206 4.0747 6.45206 4.23358C7.38175 3.76304 8.75816 3.30473 10.4606 3.30473C12.7787 3.30473 14.4993 4.39857 15.5799 5.6513C16.0447 3.14584 14.4812 0.793161 12.006 0.322625C11.6981 0.243185 11.3963 0.230962 11.0884 0.224852ZM10.4606 4.86911C6.59695 4.86911 5.66726 7.03846 5.0515 9.07338C3.97089 12.5138 1.04298 20.6596 1.04298 20.6596C1.04298 20.6596 1.19995 20.5068 1.23617 20.464C0.62644 21.6495 0.270264 23 0.270264 24.4239C0.270264 29.1598 4.09163 33.028 8.77024 33.028C13.4489 33.028 17.2702 29.1598 17.2702 24.4239C17.2702 19.9874 13.9137 16.3086 9.63956 15.8687C14.6381 16.1375 16.25 18.588 17.2702 20.5129C17.2702 22.2362 18.6587 23.6417 20.3611 23.6417C22.0635 23.6417 23.452 22.2362 23.452 20.5129C24.4723 18.588 26.0841 16.1375 31.0827 15.8687C26.8086 16.3086 23.452 19.9874 23.452 24.4239C23.452 29.1598 27.2734 33.028 31.952 33.028C36.6306 33.028 40.452 29.1598 40.452 24.4239C40.452 23 40.0958 21.6495 39.4861 20.464C39.5223 20.5068 39.6792 20.6596 39.6792 20.6596C39.6792 20.6596 36.7513 12.5138 35.6707 9.07338C35.055 7.19734 34.1253 4.86911 30.2617 4.86911C26.0901 4.86911 24.5447 10.0145 23.3071 9.07338C22.5344 8.29119 21.4417 7.99787 20.3611 7.99787C19.2805 7.99787 18.1878 8.29119 17.4151 9.07338C16.1775 10.0145 14.6321 4.86911 10.4606 4.86911ZM8.77024 18.9485C11.7766 18.9485 14.1793 21.3807 14.1793 24.4239C14.1793 27.4671 11.7766 29.8992 8.77024 29.8992C5.76386 29.8992 3.36116 27.4671 3.36116 24.4239C3.36116 21.3807 5.76386 18.9485 8.77024 18.9485ZM31.952 18.9485C34.9584 18.9485 37.3611 21.3807 37.3611 24.4239C37.3611 27.4671 34.9584 29.8992 31.952 29.8992C28.9456 29.8992 26.5429 27.4671 26.5429 24.4239C26.5429 21.3807 28.9456 18.9485 31.952 18.9485Z" fill="url(#paint0_linear_285_5)"/>
<defs>
<linearGradient id="paint0_linear_285_5" x1="19.1209" y1="33.0552" x2="19.1209" y2="-0.0864564" gradientUnits="userSpaceOnUse">
<stop stop-color="#5F91DC"/>
<stop offset="1" stop-color="#0E191D"/>
</linearGradient>
</defs>
</svg>
