<svg width="168" height="33" viewBox="0 0 168 33" fill="none" xmlns="http://www.w3.org/2000/svg">
<path d="M16.3187 26.7083C16.3187 27.6081 16.1282 28.4437 15.7473 29.215C15.3874 29.9648 14.8795 30.6076 14.2233 31.1432C13.5884 31.6788 12.8158 32.0966 11.9057 32.3966C11.0167 32.6965 10.0325 32.8465 8.95308 32.8465C7.17516 32.8465 5.56657 32.5466 4.12731 31.9467C2.70921 31.3468 1.33344 30.4469 0 29.2471L1.07945 27.9938C1.69325 28.5722 2.29648 29.0757 2.88911 29.5042C3.50292 29.9113 4.12731 30.2541 4.76228 30.5326C5.39725 30.7897 6.06397 30.9932 6.76243 31.1432C7.4609 31.2718 8.22286 31.336 9.04833 31.336C9.87379 31.336 10.6358 31.2289 11.3342 31.0147C12.0327 30.779 12.6253 30.4683 13.1121 30.0827C13.5989 29.6756 13.9799 29.2043 14.2551 28.6686C14.5302 28.1116 14.6678 27.5117 14.6678 26.8689V26.8047C14.6678 26.2048 14.5726 25.6691 14.3821 25.1978C14.2128 24.7265 13.8847 24.298 13.3979 23.9123C12.9322 23.5267 12.2973 23.1839 11.493 22.8839C10.6887 22.5625 9.65155 22.2733 8.38161 22.0162C7.04817 21.7377 5.90522 21.4163 4.95277 21.0521C4.00031 20.6664 3.21718 20.2272 2.60338 19.7344C2.01074 19.2202 1.57684 18.6311 1.30169 17.9669C1.02654 17.3027 0.888958 16.5421 0.888958 15.6851V15.6209C0.888958 14.7853 1.06887 14.014 1.42868 13.307C1.7885 12.5785 2.28589 11.9465 2.92086 11.4109C3.55583 10.8752 4.30722 10.4574 5.17501 10.1575C6.0428 9.85755 6.99526 9.70758 8.03237 9.70758C9.64096 9.70758 11.0273 9.93254 12.1914 10.3825C13.3767 10.8324 14.5302 11.518 15.652 12.4393L14.6043 13.7569C13.546 12.8356 12.4772 12.1822 11.3977 11.7965C10.3394 11.4109 9.19649 11.218 7.96888 11.218C7.14342 11.218 6.39203 11.3359 5.71473 11.5715C5.0586 11.7858 4.48712 12.0857 4.00031 12.4714C3.53467 12.857 3.17485 13.307 2.92086 13.8212C2.66688 14.3354 2.53988 14.8817 2.53988 15.4602V15.5244C2.53988 16.1243 2.62454 16.6707 2.79387 17.1635C2.98436 17.6348 3.31243 18.074 3.77807 18.4811C4.26488 18.8667 4.9316 19.2202 5.77823 19.5416C6.62486 19.863 7.70431 20.1629 9.01658 20.4415C11.5988 20.9771 13.4614 21.7377 14.6043 22.7232C15.7473 23.6873 16.3187 24.9943 16.3187 26.644V26.7083Z" fill="black"/>
<path d="M34.0232 32.5251H32.4993V29.7934C32.2242 30.1791 31.8855 30.5647 31.4834 30.9504C31.1024 31.3146 30.6579 31.6467 30.1499 31.9467C29.6419 32.2252 29.0599 32.4501 28.4038 32.6215C27.7688 32.8144 27.0703 32.9108 26.3084 32.9108C25.5464 32.9108 24.795 32.8037 24.0542 32.5894C23.3134 32.3752 22.6467 32.0538 22.0541 31.6253C21.4614 31.1968 20.9746 30.6612 20.5936 30.0184C20.2338 29.3757 20.0539 28.6258 20.0539 27.7688V27.7045C20.0539 26.8475 20.2232 26.0869 20.5619 25.4228C20.9217 24.7586 21.4085 24.2015 22.0223 23.7516C22.6361 23.3017 23.3769 22.9589 24.2447 22.7232C25.1125 22.4875 26.0755 22.3697 27.1338 22.3697C28.2768 22.3697 29.261 22.434 30.0864 22.5625C30.9119 22.6911 31.7162 22.8625 32.4993 23.0767V22.3697C32.4993 20.6986 32.0231 19.4452 31.0706 18.6096C30.1393 17.7741 28.8377 17.3563 27.1656 17.3563C26.1708 17.3563 25.2607 17.4848 24.4352 17.7419C23.6097 17.9776 22.8266 18.2883 22.0858 18.6739L21.5143 17.292C22.4033 16.8635 23.3028 16.5207 24.213 16.2636C25.1231 16.0065 26.139 15.878 27.2608 15.878C29.3562 15.878 31.0071 16.4136 32.2136 17.4848C33.42 18.5561 34.0232 20.1629 34.0232 22.3054V32.5251ZM32.5311 26.3869V24.5229C31.8538 24.3515 31.06 24.1908 30.1499 24.0409C29.2398 23.8695 28.2027 23.7838 27.0386 23.7838C25.3242 23.7838 24.0013 24.1373 23.07 24.8443C22.1599 25.5299 21.7048 26.4512 21.7048 27.6081V27.6724C21.7048 28.2723 21.8318 28.8079 22.0858 29.2793C22.3398 29.7292 22.6784 30.1148 23.1018 30.4362C23.5462 30.7576 24.0542 31.004 24.6257 31.1754C25.1972 31.3468 25.7898 31.4325 26.4036 31.4325C27.2291 31.4325 28.0122 31.3146 28.753 31.0789C29.4938 30.8218 30.1393 30.479 30.6896 30.0505C31.2611 29.6006 31.7056 29.065 32.0231 28.4437C32.3617 27.8224 32.5311 27.1368 32.5311 26.3869Z" fill="black"/>
<path d="M47.809 10.8324C47.3434 10.6824 46.9307 10.5753 46.5709 10.511C46.211 10.4467 45.8195 10.4146 45.3962 10.4146C43.2161 10.4146 42.1261 11.7965 42.1261 14.5603V16.1351H47.7773V17.5812H42.1261V32.5251H40.5704V17.5812H38.221V16.1351H40.5704V14.5282C40.5704 12.7499 40.9937 11.3787 41.8403 10.4146C42.687 9.45048 43.8722 8.96842 45.3962 8.96842C45.883 8.96842 46.3169 9.00055 46.6978 9.06483C47.0788 9.1291 47.4492 9.22552 47.809 9.35407V10.8324Z" fill="black"/>
<path d="M51.3502 24.9728C51.4137 26.0012 51.636 26.9118 52.017 27.7045C52.3979 28.4972 52.8742 29.1721 53.4456 29.7292C54.0171 30.2862 54.6627 30.7147 55.3823 31.0147C56.1231 31.2932 56.8956 31.4325 57.6999 31.4325C58.9699 31.4325 60.0387 31.1861 60.9065 30.6933C61.7955 30.2005 62.5786 29.5899 63.2559 28.8615L64.3354 29.8256C63.5099 30.7254 62.5681 31.4646 61.5098 32.0431C60.4726 32.6215 59.1815 32.9108 57.6365 32.9108C56.5782 32.9108 55.5622 32.7072 54.5886 32.3002C53.6361 31.8931 52.7895 31.3146 52.0487 30.5647C51.3291 29.8149 50.7576 28.915 50.3343 27.8652C49.911 26.8154 49.6993 25.6477 49.6993 24.3622V24.298C49.6993 23.1196 49.8898 22.0162 50.2708 20.9878C50.6729 19.938 51.2127 19.0274 51.89 18.2561C52.5884 17.4848 53.4033 16.8742 54.3346 16.4243C55.2659 15.9744 56.2818 15.7494 57.3825 15.7494C58.5254 15.7494 59.5519 15.9744 60.4621 16.4243C61.3722 16.8528 62.1447 17.4527 62.7797 18.224C63.4358 18.9953 63.9332 19.9058 64.2719 20.9557C64.6317 21.9841 64.8116 23.1089 64.8116 24.3301V24.3944C64.8116 24.5015 64.8116 24.5979 64.8116 24.6836C64.8116 24.7479 64.801 24.8443 64.7799 24.9728H51.3502ZM51.3502 23.5588H63.1289C63.0654 22.7232 62.8961 21.9305 62.621 21.1806C62.367 20.4093 61.9966 19.7344 61.5098 19.156C61.0441 18.5561 60.4621 18.0847 59.7636 17.7419C59.0651 17.3777 58.2503 17.1956 57.319 17.1956C56.5147 17.1956 55.7633 17.3563 55.0648 17.6777C54.3663 17.999 53.7525 18.4489 53.2234 19.0274C52.7154 19.5845 52.2921 20.2594 51.9535 21.0521C51.6148 21.8234 51.4137 22.6589 51.3502 23.5588Z" fill="black"/>
<path d="M78.082 17.6134H77.9232C76.992 17.6134 76.103 17.7955 75.2564 18.1597C74.4098 18.5025 73.6584 19.0274 73.0022 19.7344C72.3673 20.42 71.8593 21.277 71.4783 22.3054C71.0973 23.3124 70.9068 24.4801 70.9068 25.8084V32.5251H69.3512V16.1351H70.9068V20.795C71.2243 20.0665 71.6265 19.3916 72.1133 18.7703C72.6001 18.149 73.1504 17.6241 73.7642 17.1956C74.378 16.7457 75.0447 16.4136 75.7644 16.1993C76.5051 15.9637 77.2777 15.8565 78.082 15.878V17.6134Z" fill="black"/>
<path d="M81.9469 32.5251V10.029H88.1061V18.4489H96.0115V10.029H102.171V32.5251H96.0115V23.9766H88.1061V32.5251H81.9469Z" fill="url(#paint0_linear_11_87)"/>
<path d="M156.729 32.9108C152.665 32.9108 149.141 29.4721 149.141 23.9123V23.848C149.141 18.1919 152.634 14.7531 156.698 14.7531C159.301 14.7531 160.825 15.9422 161.968 17.2599V9.06483H168V32.5251H161.968V30.2112C160.793 31.6574 159.301 32.9108 156.729 32.9108ZM158.571 27.8009C160.507 27.8009 162.063 26.1619 162.063 23.848V23.7838C162.063 21.502 160.507 19.863 158.571 19.863C156.634 19.863 155.047 21.4699 155.047 23.7838V23.848C155.047 26.1619 156.634 27.8009 158.571 27.8009Z" fill="url(#paint1_linear_11_87)"/>
<path d="M135.537 0.00134998C135.217 0.00746044 134.897 0.0685698 134.571 0.148011C132.096 0.618547 130.533 2.97123 130.997 5.47668C132.235 4.38284 133.943 3.27677 136.262 3.27677C138.115 3.27677 139.34 3.73509 140.27 4.20562C140.27 4.04674 140.282 3.92452 140.125 3.76564C139.721 1.57795 137.777 -0.0536474 135.537 0.00134998ZM117.088 0.196898C114.951 0.1419 113.001 1.71239 112.597 3.76564C112.44 3.92452 112.452 4.04674 112.452 4.20562C113.382 3.73509 114.758 3.27677 116.461 3.27677C118.779 3.27677 120.499 4.37062 121.58 5.62334C122.045 3.11789 120.481 0.765207 118.006 0.294671C117.698 0.21523 117.396 0.203008 117.088 0.196898ZM116.461 4.84115C112.597 4.84115 111.667 7.01051 111.051 9.04543C109.971 12.4858 107.043 20.6316 107.043 20.6316C107.043 20.6316 107.2 20.4788 107.236 20.4361C106.626 21.6216 106.27 22.9721 106.27 24.3959C106.27 29.1318 110.092 33 114.77 33C119.449 33 123.27 29.1318 123.27 24.3959C123.27 19.9594 119.914 16.2807 115.64 15.8407C120.638 16.1096 122.25 18.56 123.27 20.485C123.27 22.2082 124.659 23.6137 126.361 23.6137C128.063 23.6137 129.452 22.2082 129.452 20.485C130.472 18.56 132.084 16.1096 137.083 15.8407C132.809 16.2807 129.452 19.9594 129.452 24.3959C129.452 29.1318 133.273 33 137.952 33C142.631 33 146.452 29.1318 146.452 24.3959C146.452 22.9721 146.096 21.6216 145.486 20.4361C145.522 20.4788 145.679 20.6316 145.679 20.6316C145.679 20.6316 142.751 12.4858 141.671 9.04543C141.055 7.16939 140.125 4.84115 136.262 4.84115C132.09 4.84115 130.545 9.9865 129.307 9.04543C128.534 8.26324 127.442 7.96991 126.361 7.96991C125.28 7.96991 124.188 8.26324 123.415 9.04543C122.177 9.9865 120.632 4.84115 116.461 4.84115ZM114.77 18.9206C117.777 18.9206 120.179 21.3527 120.179 24.3959C120.179 27.4391 117.777 29.8712 114.77 29.8712C111.764 29.8712 109.361 27.4391 109.361 24.3959C109.361 21.3527 111.764 18.9206 114.77 18.9206ZM137.952 18.9206C140.958 18.9206 143.361 21.3527 143.361 24.3959C143.361 27.4391 140.958 29.8712 137.952 29.8712C134.946 29.8712 132.543 27.4391 132.543 24.3959C132.543 21.3527 134.946 18.9206 137.952 18.9206Z" fill="url(#paint2_linear_11_87)"/>
<defs>
<linearGradient id="paint0_linear_11_87" x1="125.121" y1="33.0273" x2="125.121" y2="-0.114411" gradientUnits="userSpaceOnUse">
<stop stop-color="#5F91DC"/>
<stop offset="1" stop-color="#0E191D"/>
</linearGradient>
<linearGradient id="paint1_linear_11_87" x1="125.121" y1="33.0273" x2="125.121" y2="-0.114411" gradientUnits="userSpaceOnUse">
<stop stop-color="#5F91DC"/>
<stop offset="1" stop-color="#0E191D"/>
</linearGradient>
<linearGradient id="paint2_linear_11_87" x1="125.121" y1="33.0273" x2="125.121" y2="-0.114411" gradientUnits="userSpaceOnUse">
<stop stop-color="#5F91DC"/>
<stop offset="1" stop-color="#0E191D"/>
</linearGradient>
</defs>
</svg>
