<svg width="339" height="66" viewBox="0 0 339 66" fill="none"
    xmlns="http://www.w3.org/2000/svg">
    <path d="M32.896 53.1882C32.896 54.9802 32.512 56.6442 31.744 58.1802C31.0187 59.6735 29.9947 60.9535 28.672 62.0202C27.392 63.0868 25.8347 63.9188 24 64.5162C22.208 65.1135 20.224 65.4122 18.048 65.4122C14.464 65.4122 11.2213 64.8148 8.32 63.6202C5.46133 62.4255 2.688 60.6335 0 58.2442L2.176 55.7481C3.41333 56.9002 4.62933 57.9028 5.824 58.7562C7.06133 59.5668 8.32 60.2495 9.6 60.8042C10.88 61.3162 12.224 61.7215 13.632 62.0202C15.04 62.2762 16.576 62.4042 18.24 62.4042C19.904 62.4042 21.44 62.1908 22.848 61.7642C24.256 61.2948 25.4507 60.6762 26.432 59.9081C27.4133 59.0975 28.1813 58.1588 28.736 57.0922C29.2907 55.9828 29.568 54.7882 29.568 53.5082V53.3801C29.568 52.1855 29.376 51.1188 28.992 50.1801C28.6507 49.2415 27.9893 48.3882 27.008 47.6202C26.0693 46.8521 24.7893 46.1695 23.168 45.5722C21.5467 44.9322 19.456 44.3562 16.896 43.8442C14.208 43.2895 11.904 42.6495 9.984 41.9241C8.064 41.1561 6.48533 40.2815 5.248 39.3001C4.05333 38.2761 3.17867 37.1028 2.624 35.7802C2.06933 34.4575 1.792 32.9428 1.792 31.2361V31.1082C1.792 29.4442 2.15467 27.9082 2.88 26.5001C3.60533 25.0495 4.608 23.7908 5.888 22.7242C7.168 21.6575 8.68267 20.8255 10.432 20.2281C12.1813 19.6308 14.1013 19.3321 16.192 19.3321C19.4347 19.3321 22.2293 19.7801 24.576 20.6762C26.9653 21.5721 29.2907 22.9375 31.552 24.7722L29.44 27.3961C27.3067 25.5615 25.152 24.2601 22.976 23.4921C20.8427 22.7241 18.5387 22.3401 16.064 22.3401C14.4 22.3401 12.8853 22.5748 11.52 23.0442C10.1973 23.4708 9.04533 24.0682 8.064 24.8362C7.12533 25.6042 6.4 26.5002 5.888 27.5242C5.376 28.5482 5.12 29.6362 5.12 30.7882V30.9161C5.12 32.1108 5.29067 33.1988 5.632 34.1801C6.016 35.1188 6.67733 35.9935 7.616 36.8041C8.59733 37.5721 9.94133 38.2761 11.648 38.9161C13.3547 39.5561 15.5307 40.1535 18.176 40.7081C23.3813 41.7748 27.136 43.2895 29.44 45.2522C31.744 47.1721 32.896 49.7748 32.896 53.0602V53.1882Z" fill="black"/>
    <path d="M68.5855 64.7721H65.5135V59.3322C64.9588 60.1002 64.2762 60.8681 63.4655 61.6362C62.6975 62.3615 61.8015 63.0228 60.7775 63.6202C59.7535 64.1748 58.5802 64.6228 57.2575 64.9641C55.9775 65.3482 54.5695 65.5402 53.0335 65.5402C51.4975 65.5402 49.9828 65.3268 48.4895 64.9002C46.9962 64.4735 45.6522 63.8335 44.4575 62.9802C43.2628 62.1268 42.2815 61.0602 41.5135 59.7802C40.7882 58.5002 40.4255 57.0068 40.4255 55.3002V55.1721C40.4255 53.4655 40.7668 51.9508 41.4495 50.6282C42.1748 49.3055 43.1562 48.1962 44.3935 47.3002C45.6308 46.4042 47.1242 45.7215 48.8735 45.2522C50.6228 44.7828 52.5642 44.5481 54.6975 44.5481C57.0015 44.5481 58.9855 44.6762 60.6495 44.9322C62.3135 45.1882 63.9348 45.5295 65.5135 45.9562V44.5481C65.5135 41.2201 64.5535 38.7242 62.6335 37.0602C60.7562 35.3961 58.1322 34.5641 54.7615 34.5641C52.7562 34.5641 50.9215 34.8201 49.2575 35.3321C47.5935 35.8015 46.0148 36.4201 44.5215 37.1881L43.3695 34.4361C45.1615 33.5828 46.9748 32.9002 48.8095 32.3881C50.6442 31.8762 52.6922 31.6202 54.9535 31.6202C59.1775 31.6202 62.5055 32.6868 64.9375 34.8201C67.3695 36.9535 68.5855 40.1535 68.5855 44.4202V64.7721ZM65.5775 52.5481V48.8362C64.2122 48.4948 62.6122 48.1748 60.7775 47.8762C58.9428 47.5348 56.8522 47.3642 54.5055 47.3642C51.0495 47.3642 48.3828 48.0681 46.5055 49.4762C44.6708 50.8415 43.7535 52.6762 43.7535 54.9802V55.1082C43.7535 56.3028 44.0095 57.3695 44.5215 58.3082C45.0335 59.2042 45.7162 59.9722 46.5695 60.6122C47.4655 61.2522 48.4895 61.7428 49.6415 62.0842C50.7935 62.4255 51.9882 62.5962 53.2255 62.5962C54.8895 62.5962 56.4682 62.3615 57.9615 61.8922C59.4548 61.3801 60.7562 60.6975 61.8655 59.8442C63.0175 58.9482 63.9135 57.8815 64.5535 56.6441C65.2362 55.4068 65.5775 54.0415 65.5775 52.5481Z" fill="black"/>
    <path d="M96.3755 21.5722C95.4368 21.2735 94.6048 21.0601 93.8795 20.9321C93.1542 20.8041 92.3648 20.7402 91.5115 20.7402C87.1168 20.7402 84.9195 23.4922 84.9195 28.9962V32.1321H96.3115V35.0121H84.9195V64.7721H81.7835V35.0121H77.0475V32.1321H81.7835V28.9322C81.7835 25.3908 82.6368 22.6602 84.3435 20.7402C86.0502 18.8202 88.4395 17.8601 91.5115 17.8601C92.4928 17.8601 93.3675 17.9242 94.1355 18.0522C94.9035 18.1801 95.6502 18.3721 96.3755 18.6282V21.5722Z" fill="black"/>
    <path d="M103.514 49.7322C103.642 51.7802 104.09 53.5935 104.858 55.1721C105.626 56.7508 106.586 58.0948 107.738 59.2042C108.89 60.3135 110.191 61.1668 111.642 61.7642C113.135 62.3188 114.693 62.5962 116.314 62.5962C118.874 62.5962 121.029 62.1055 122.778 61.1242C124.57 60.1428 126.149 58.9268 127.514 57.4762L129.69 59.3962C128.026 61.1882 126.127 62.6602 123.994 63.8122C121.903 64.9641 119.301 65.5402 116.186 65.5402C114.053 65.5402 112.005 65.1348 110.042 64.3242C108.122 63.5135 106.415 62.3615 104.922 60.8682C103.471 59.3748 102.319 57.5828 101.466 55.4921C100.613 53.4015 100.186 51.0762 100.186 48.5162V48.3881C100.186 46.0415 100.57 43.8442 101.338 41.7962C102.149 39.7055 103.237 37.8921 104.602 36.3561C106.01 34.8201 107.653 33.6041 109.53 32.7081C111.407 31.8122 113.455 31.3642 115.674 31.3642C117.978 31.3642 120.047 31.8122 121.882 32.7081C123.717 33.5615 125.274 34.7561 126.554 36.2921C127.877 37.8281 128.879 39.6415 129.562 41.7322C130.287 43.7802 130.65 46.0201 130.65 48.4521V48.5802C130.65 48.7935 130.65 48.9855 130.65 49.1562C130.65 49.2841 130.629 49.4762 130.586 49.7322H103.514ZM103.514 46.9161H127.258C127.13 45.2521 126.789 43.6735 126.234 42.1801C125.722 40.6441 124.975 39.3002 123.994 38.1482C123.055 36.9535 121.882 36.0148 120.474 35.3321C119.066 34.6068 117.423 34.2441 115.546 34.2441C113.925 34.2441 112.41 34.5642 111.002 35.2042C109.594 35.8442 108.357 36.7402 107.29 37.8922C106.266 39.0015 105.413 40.3455 104.73 41.9241C104.047 43.4601 103.642 45.1241 103.514 46.9161Z" fill="black"/>
    <path d="M157.401 35.0761H157.081C155.204 35.0761 153.412 35.4388 151.705 36.1642C149.998 36.8468 148.484 37.8921 147.161 39.3001C145.881 40.6655 144.857 42.3722 144.089 44.4202C143.321 46.4255 142.937 48.7508 142.937 51.3962V64.7721H139.801V32.1321H142.937V41.4122C143.577 39.9615 144.388 38.6175 145.369 37.3801C146.35 36.1428 147.46 35.0975 148.697 34.2441C149.934 33.3481 151.278 32.6868 152.729 32.2602C154.222 31.7908 155.78 31.5775 157.401 31.6202V35.0761Z" fill="black"/>
    <path d="M165.192 64.7722V19.9721H177.608V36.7402H193.544V19.9721H205.96V64.7722H193.544V47.7482H177.608V64.7722H165.192Z" fill="url(#paint0_linear_11_86)"/>
    <path d="M315.942 65.5402C307.75 65.5402 300.646 58.6922 300.646 47.6202V47.4922C300.646 36.2282 307.686 29.3801 315.878 29.3801C321.126 29.3801 324.198 31.7481 326.502 34.3722V18.0522H338.662V64.7722H326.502V60.1642C324.134 63.0442 321.126 65.5402 315.942 65.5402ZM319.654 55.3642C323.558 55.3642 326.694 52.1002 326.694 47.4922V47.3642C326.694 42.8202 323.558 39.5562 319.654 39.5562C315.75 39.5562 312.55 42.7561 312.55 47.3642V47.4922C312.55 52.1002 315.75 55.3642 319.654 55.3642Z" fill="url(#paint1_linear_11_86)"/>
    <path d="M273.222 0.00268841C272.577 0.0148571 271.932 0.136553 271.275 0.294756C266.285 1.2318 263.133 5.91705 264.07 10.9065C266.565 8.7282 270.009 6.52553 274.682 6.52553C278.418 6.52553 280.888 7.43824 282.762 8.37529C282.762 8.05888 282.787 7.81549 282.47 7.49908C281.655 3.14241 277.736 -0.106836 273.222 0.00268841ZM236.032 0.392111C231.724 0.282587 227.793 3.41014 226.978 7.49908C226.661 7.81549 226.686 8.05888 226.686 8.37529C228.56 7.43824 231.334 6.52553 234.766 6.52553C239.439 6.52553 242.907 8.70386 245.086 11.1986C246.023 6.20912 242.871 1.52387 237.881 0.586823C237.261 0.428621 236.652 0.40428 236.032 0.392111ZM234.766 9.64091C226.978 9.64091 225.104 13.9611 223.862 18.0135C221.684 24.8649 215.782 41.0868 215.782 41.0868C215.782 41.0868 216.098 40.7826 216.171 40.6974C214.942 43.0583 214.224 45.7477 214.224 48.5832C214.224 58.0146 221.927 65.7178 231.359 65.7178C240.79 65.7178 248.493 58.0146 248.493 48.5832C248.493 39.7482 241.727 32.4222 233.111 31.546C243.187 32.0814 246.437 36.9614 248.493 40.7948C248.493 44.2266 251.292 47.0255 254.724 47.0255C258.156 47.0255 260.955 44.2266 260.955 40.7948C263.011 36.9614 266.261 32.0814 276.337 31.546C267.721 32.4222 260.955 39.7482 260.955 48.5832C260.955 58.0146 268.658 65.7178 278.089 65.7178C287.521 65.7178 295.224 58.0146 295.224 48.5832C295.224 45.7477 294.506 43.0583 293.277 40.6974C293.35 40.7826 293.666 41.0868 293.666 41.0868C293.666 41.0868 287.764 24.8649 285.586 18.0135C284.345 14.2775 282.47 9.64091 274.682 9.64091C266.273 9.64091 263.157 19.8876 260.663 18.0135C259.105 16.4558 256.902 15.8717 254.724 15.8717C252.546 15.8717 250.343 16.4558 248.785 18.0135C246.291 19.8876 243.175 9.64091 234.766 9.64091ZM231.359 37.6794C237.419 37.6794 242.262 42.5228 242.262 48.5832C242.262 54.6436 237.419 59.4871 231.359 59.4871C225.298 59.4871 220.455 54.6436 220.455 48.5832C220.455 42.5228 225.298 37.6794 231.359 37.6794ZM278.089 37.6794C284.15 37.6794 288.993 42.5228 288.993 48.5832C288.993 54.6436 284.15 59.4871 278.089 59.4871C272.029 59.4871 267.186 54.6436 267.186 48.5832C267.186 42.5228 272.029 37.6794 278.089 37.6794Z" fill="url(#paint2_linear_11_86)"/>
    <defs>
        <linearGradient id="paint0_linear_11_86" x1="252.224" y1="65.7722" x2="252.224" y2="-0.227843" gradientUnits="userSpaceOnUse">
            <stop stop-color="#3E738B"/>
            <stop offset="1" stop-color="#0E191D"/>
        </linearGradient>
        <linearGradient id="paint1_linear_11_86" x1="252.224" y1="65.7722" x2="252.224" y2="-0.227843" gradientUnits="userSpaceOnUse">
            <stop stop-color="#3E738B"/>
            <stop offset="1" stop-color="#0E191D"/>
        </linearGradient>
        <linearGradient id="paint2_linear_11_86" x1="252.224" y1="65.7722" x2="252.224" y2="-0.227843" gradientUnits="userSpaceOnUse">
            <stop stop-color="#3E738B"/>
            <stop offset="1" stop-color="#0E191D"/>
        </linearGradient>
    </defs>
</svg>
